Coordinates
version=1
nRows=26
nColumns=24
inDegrees=yes

Units are S.I. units (second, meters, Newtons, ...)
Angles are in degrees.

endheader
time	pelvis_tilt	pelvis_list	pelvis_rotation	pelvis_tx	pelvis_ty	pelvis_tz	hip_flexion_r	hip_adduction_r	hip_rotation_r	knee_angle_r	ankle_angle_r	subtalar_angle_r	mtp_angle_r	hip_flexion_l	hip_adduction_l	hip_rotation_l	knee_angle_l	ankle_angle_l	subtalar_angle_l	mtp_angle_l	lumbar_extension	lumbar_bending	lumbar_rotation
      5.30000000	     -8.89594819	      8.59336726	     -1.91525102	     -0.12530829	     -0.01907799	      0.57468805	     25.04596171	    -14.08909455	     -4.75655442	    -65.17685890	     -4.75068204	     -0.48742454	     12.29279525	     17.14961177	     11.10891778	     -1.95720184	    -16.41139383	      3.19024715	      6.62898619	      0.75840995	      7.19628087	    -10.35466258	      2.50344720
      5.30500000	     -8.90039972	      8.31511252	     -1.63709433	     -0.11958744	     -0.01821320	      0.57436227	     25.72305704	    -13.86346407	     -5.18637713	    -64.77319418	     -4.44365336	     -0.16137778	     12.37538498	     16.45867040	     10.97625210	     -1.33398777	    -15.96600292	      3.36129885	      6.42220311	      0.43968050	      7.11114471	    -10.10586697	      2.03487339
      5.31000000	     -8.89823034	      8.04248532	     -1.36273361	     -0.11386152	     -0.01739559	      0.57406771	     26.37640635	    -13.63849779	     -5.61245992	    -64.29289315	     -4.16532033	      0.15275798	     12.47043576	     15.76161932	     10.83628932	     -0.71425127	    -15.51768466	      3.52645134	      6.21469657	      0.11077293	      7.02544854	     -9.86535881	      1.58286463
      5.31500000	     -8.89515961	      7.77567687	     -1.09618548	     -0.10815037	     -0.01664259	      0.57378419	     27.01786944	    -13.41126345	     -6.01882712	    -63.74291721	     -3.91543277	      0.45839651	     12.56578716	     15.07253171	     10.68742390	     -0.13312358	    -15.07630657	      3.69767697	      6.03058482	     -0.19253469	      6.94186624	     -9.62482706	      1.14076083
      5.32000000	     -8.88428887	      7.51572168	     -0.83012705	     -0.10242282	     -0.01593463	      0.57354734	     27.62980189	    -13.18734325	     -6.42499883	    -63.11945209	     -3.68700736	      0.73779071	     12.65346365	     14.37268298	     10.53233207	      0.45286148	    -14.62714324	      3.86321021	      5.84327000	     -0.50698177	      6.85498818	     -9.39966028	      0.71412209
      5.32500000	     -8.87484532	      7.26493330	     -0.58187906	     -0.09670630	     -0.01529504	      0.57333670	     28.23420928	    -12.96090736	     -6.80491561	    -62.43061004	     -3.48152013	      0.99168082	     12.71900743	     13.68272445	     10.36927119	      0.98676383	    -14.18173151	      4.02910913	      5.68535590	     -0.78967889	      6.77554737	     -9.17822157	      0.30777129
      5.33000000	     -8.86012316	      7.02556188	     -0.34031538	     -0.09098610	     -0.01471824	      0.57315004	     28.81660456	    -12.74156546	     -7.17339557	    -61.67685567	     -3.29079984	      1.20516413	     12.75450074	     12.98822112	     10.20482906	      1.50716546	    -13.73170127	      4.19557224	      5.53934990	     -1.05735948	      6.69494822	     -8.96723713	     -0.07954541
      5.33500000	     -8.84351415	      6.79546098	     -0.11040824	     -0.08526836	     -0.01420527	      0.57299431	     29.38125370	    -12.52430825	     -7.52574168	    -60.85813344	     -3.11337993	      1.38167441	     12.75100714	     12.29586138	     10.03557364	      1.99900364	    -13.28069406	      4.36146161	      5.40751944	     -1.30629683	      6.61743821	     -8.76569243	     -0.44487833
      5.34000000	     -8.85407601	      6.56830022	      0.07903235	     -0.07953647	     -0.01377549	      0.57287534	     29.96678550	    -12.28797392	     -7.83342482	    -59.97335207	     -2.96161321	      1.54045138	     12.70829389	     11.64627019	      9.84794734	      2.36263289	    -12.83832669	      4.51184888	      5.32216126	     -1.48308895	      6.58301807	     -8.55336835	     -0.75169091
      5.34500000	     -8.83592959	      6.35455676	      0.29193649	     -0.07382115	     -0.01340228	      0.57276000	     30.49370577	    -12.07840468	     -8.16327068	    -59.03119100	     -2.80484107	      1.63013206	     12.61396456	     10.96159285	      9.67126190	      2.80253676	    -12.38791908	      4.67906075	      5.23025069	     -1.66776921	      6.50936266	     -8.36391203	     -1.09172182
      5.35000000	     -8.77713334	      6.17074232	      0.50973689	     -0.06810969	     -0.01307674	      0.57267521	     30.95516212	    -11.90285181	     -8.49394711	    -58.03529484	     -2.63844089	      1.65128697	     12.43966733	     10.23028922	      9.52042510	      3.30636604	    -11.93577517	      4.86218858	      5.10098563	     -1.90762211	      6.39349921	     -8.21838738	     -1.43223373
      5.35500000	     -8.75278346	      5.98598861	      0.68983353	     -0.06239192	     -0.01284630	      0.57261576	     31.44296484	    -11.70796181	     -8.78541772	    -56.97912173	     -2.49250238	      1.66363688	     12.21606175	      9.54873841	      9.35177063	      3.70010319	    -11.49345657	      5.03920424	      5.01218067	     -2.12095558	      6.32275902	     -8.05381414	     -1.72313368
      5.36000000	     -8.80148858	      5.82933924	      0.79616996	     -0.05666861	     -0.01280991	      0.57265902	     32.02271896	    -11.49623988	     -8.97301840	    -55.88151251	     -2.34143369	      1.68579373	     12.05542629	      8.96587838	      9.18659028	      3.92505420	    -11.06876181	      5.24270178	      5.01485498	     -2.19771909	      6.34859073	     -7.90921167	     -1.89451066
      5.36500000	     -8.73488377	      5.63273628	      1.00876459	     -0.05091998	     -0.01260921	      0.57254690	     32.38314169	    -11.31718347	     -9.32688620	    -54.67411904	     -2.24713706	      1.57550594	     11.69877493	      8.25021325	      9.00029848	      4.31326308	    -10.64574111	      5.39104203	      4.93577364	     -2.39692444	      6.23299396	     -7.72959334	     -2.22767824
      5.37000000	     -8.64836781	      5.50198780	      1.17047439	     -0.04520804	     -0.01256155	      0.57256457	     32.73960838	    -11.17429466	     -9.59965718	    -53.46527762	     -2.07193753	      1.49990222	     11.21921608	      7.50554725	      8.86389616	      4.72734458	    -10.20614136	      5.59739206	      4.83863841	     -2.66002775	      6.09157788	     -7.62524389	     -2.49863527
      5.37500000	     -8.62821438	      5.36391219	      1.30611157	     -0.03946716	     -0.01263261	      0.57258878	     33.14686268	    -11.01058005	     -9.84328355	    -52.19011524	     -1.93367325	      1.41663393	     10.74508821	      6.85318306	      8.71063019	      5.01938947	     -9.79707775	      5.80805227	      4.80636146	     -2.86859899	      6.03654279	     -7.50091812	     -2.72009409
      5.38000000	     -8.59827867	      5.23480293	      1.43346675	     -0.03371564	     -0.01276233	      0.57262474	     33.51688760	    -10.85627506	    -10.08447137	    -50.85838738	     -1.79621003	      1.32574989	     10.24616613	      6.19514112	      8.55997938	      5.28266621	     -9.39416155	      6.02237853	      4.79624267	     -3.05366792	      5.97036577	     -7.38271737	     -2.93297432
      5.38500000	     -8.58723361	      5.11422241	      1.53871368	     -0.02792570	     -0.01298636	      0.57265325	     33.88665680	    -10.71057570	    -10.32076568	    -49.47630965	     -1.66556985	      1.25765992	      9.75389654	      5.55830306	      8.41484638	      5.48744543	     -8.99049971	      6.24321863	      4.79098187	     -3.21233373	      5.93495062	     -7.26038888	     -3.11983633
      5.39000000	     -8.52687462	      5.01011128	      1.67048645	     -0.02218804	     -0.01321555	      0.57273277	     34.16615478	    -10.57951501	    -10.54581618	    -48.03873619	     -1.49070492	      1.17584276	      9.12138660	      4.88152122	      8.27777921	      5.75913160	     -8.61316447	      6.46531196	      4.81500497	     -3.39971502	      5.82505626	     -7.16987868	     -3.31932403
      5.39500000	     -8.50306538	      4.90645928	      1.77555214	     -0.01640484	     -0.01355536	      0.57280671	     34.46559589	    -10.44694420	    -10.76589982	    -46.55484541	     -1.33109306	      1.13909307	      8.49059719	      4.24495519	      8.13928259	      5.96157382	     -8.23531006	      6.69915204	      4.83986052	     -3.56245644	      5.76677136	     -7.07044807	     -3.49437819
      5.40000000	     -8.48060334	      4.81112007	      1.87514810	     -0.01060883	     -0.01396077	      0.57289308	     34.73956633	    -10.32177830	    -10.97772866	    -45.02218452	     -1.16275328	      1.13114624	      7.86067494	      3.61708666	      8.00512091	      6.13861563	     -7.86924358	      6.93567710	      4.88458009	     -3.69435224	      5.70912633	     -6.97637816	     -3.66265012
      5.40500000	     -8.49641289	      4.71527764	      1.95839648	     -0.00475410	     -0.01446293	      0.57293943	     35.02905849	    -10.20154370	    -11.19958381	    -43.43862792	     -1.02068265	      1.14402540	      7.33313660	      3.03447531	      7.87414049	      6.24794291	     -7.51055016	      7.16359365	      4.93034503	     -3.77425035	      5.70637244	     -6.86716460	     -3.80196039
      5.41000000	     -8.44060492	      4.62893665	      2.06893132	      0.00102329	     -0.01495394	      0.57306706	     35.20564909	    -10.07990085	    -11.37959373	    -41.80988316	     -0.82676494	      1.17825602	      6.64744852	      2.38919929	      7.73856691	      6.43378944	     -7.17638276	      7.41676982	      5.01871363	     -3.84814196	      5.59776191	     -6.78526954	     -3.98594257
      5.41500000	     -8.43831510	      4.54203664	      2.16124413	      0.00687288	     -0.01555876	      0.57317005	     35.41773549	     -9.95954621	    -11.55985810	    -40.14506672	     -0.65345884	      1.25830525	      6.01601859	      1.80647439	      7.60654042	      6.56076621	     -6.85410605	      7.66243416	      5.09405087	     -3.88930310	      5.56179302	     -6.69110169	     -4.13951544
      5.42000000	     -8.43544679	      4.45778090	      2.25203213	      0.01273729	     -0.01622068	      0.57327851	     35.60167066	     -9.84014504	    -11.72474618	    -38.44100118	     -0.48451330	      1.36871811	      5.41782582	      1.23426828	      7.47647358	      6.67291916	     -6.55334175	      7.91176023	      5.17498747	     -3.90053342	      5.52636271	     -6.59706140	     -4.29153075
      5.42500000	     -8.44470336	      4.37007226	      2.34722700	      0.01863834	     -0.01695352	      0.57338851	     35.77078811	     -9.71858422	    -11.88297755	    -36.70647185	     -0.32792906	      1.47902696	      4.87142743	      0.68220187	      7.34193311	      6.78310438	     -6.26881215	      8.17129899	      5.26044254	     -3.88849708	      5.50405920	     -6.49877944	     -4.43737494
